<svg width="367" height="115" viewBox="0 0 367 115" fill="none" xmlns="http://www.w3.org/2000/svg">
<path fill-rule="evenodd" clip-rule="evenodd" d="M136.846 45.94L146.308 62.185H152.521L142.546 45.541C145.7 44.857 148.056 43.47 149.614 41.38C151.21 39.29 152.008 36.877 152.008 34.141C152.008 31.899 151.495 29.904 150.469 28.156C149.443 26.408 147.885 25.021 145.795 23.995C143.743 22.969 141.216 22.456 138.214 22.456H125.389V62.185H130.576V45.94H136.846ZM138.214 41.779H130.576V26.731H138.214C141.064 26.731 143.173 27.377 144.541 28.669C145.947 29.961 146.65 31.785 146.65 34.141C146.65 36.459 145.947 38.321 144.541 39.727C143.135 41.095 141.026 41.779 138.214 41.779ZM163.032 62.185L166.224 53.35H183.552L186.744 62.185H192.216L177.909 22.684H171.924L157.56 62.185H163.032ZM174.888 29.068L182.07 49.132H167.706L174.888 29.068ZM224.525 62.185H229.712V22.399H224.525V53.977L203.663 22.399H198.476V62.185H203.663V30.55L224.525 62.185ZM262.152 24.907C258.998 23.273 255.255 22.456 250.923 22.456H238.554V62.185H250.923C255.255 62.185 258.998 61.406 262.152 59.848C265.344 58.252 267.776 55.972 269.448 53.008C271.158 50.006 272.013 46.472 272.013 42.406C272.013 38.34 271.158 34.806 269.448 31.804C267.776 28.802 265.344 26.503 262.152 24.907ZM262.665 53.863C259.967 56.561 256.053 57.91 250.923 57.91H243.741V26.674H250.923C256.015 26.674 259.91 28.061 262.608 30.835C265.344 33.609 266.712 37.466 266.712 42.406C266.712 47.308 265.363 51.127 262.665 53.863ZM286.778 60.019C289.818 61.729 293.181 62.584 296.867 62.584C300.591 62.584 303.973 61.729 307.013 60.019C310.053 58.271 312.447 55.858 314.195 52.78C315.943 49.702 316.817 46.206 316.817 42.292C316.817 38.378 315.943 34.882 314.195 31.804C312.447 28.726 310.053 26.332 307.013 24.622C303.973 22.874 300.591 22 296.867 22C293.181 22 289.818 22.874 286.778 24.622C283.738 26.332 281.325 28.745 279.539 31.861C277.791 34.939 276.917 38.416 276.917 42.292C276.917 46.168 277.791 49.664 279.539 52.78C281.325 55.858 283.738 58.271 286.778 60.019ZM304.334 56.143C302.13 57.435 299.641 58.081 296.867 58.081C294.093 58.081 291.585 57.435 289.343 56.143C287.139 54.851 285.391 53.008 284.099 50.614C282.845 48.22 282.218 45.446 282.218 42.292C282.218 39.1 282.845 36.326 284.099 33.97C285.391 31.576 287.139 29.733 289.343 28.441C291.547 27.149 294.055 26.503 296.867 26.503C299.679 26.503 302.187 27.149 304.391 28.441C306.595 29.733 308.324 31.576 309.578 33.97C310.87 36.326 311.516 39.1 311.516 42.292C311.516 45.446 310.87 48.22 309.578 50.614C308.324 53.008 306.576 54.851 304.334 56.143ZM363.963 62.185V22.741H358.434L343.842 55.345L329.25 22.741H323.664V62.185H328.851V32.716L342.018 62.185H345.666L358.776 32.773V62.185H363.963ZM127.204 73.033C126.1 74.977 125.548 77.173 125.548 79.621C125.548 82.069 126.1 84.265 127.204 86.209C128.308 88.153 129.808 89.677 131.704 90.781C133.624 91.861 135.748 92.401 138.076 92.401C140.812 92.401 143.2 91.753 145.24 90.457C147.28 89.137 148.768 87.277 149.704 84.877H145.78C145.084 86.389 144.076 87.553 142.756 88.369C141.46 89.161 139.9 89.557 138.076 89.557C136.324 89.557 134.752 89.149 133.36 88.333C131.968 87.517 130.876 86.365 130.084 84.877C129.292 83.365 128.896 81.613 128.896 79.621C128.896 77.605 129.292 75.853 130.084 74.365C130.876 72.853 131.968 71.689 133.36 70.873C134.752 70.057 136.324 69.649 138.076 69.649C139.9 69.649 141.46 70.057 142.756 70.873C144.076 71.689 145.084 72.853 145.78 74.365H149.704C148.768 71.941 147.28 70.069 145.24 68.749C143.2 67.429 140.812 66.769 138.076 66.769C135.748 66.769 133.624 67.321 131.704 68.425C129.808 69.529 128.308 71.065 127.204 73.033ZM166.641 89.521H157.857V67.093H154.581V92.185H166.641V89.521ZM175.124 90.817C177.044 91.897 179.168 92.437 181.496 92.437C183.848 92.437 185.984 91.897 187.904 90.817C189.824 89.713 191.336 88.189 192.44 86.245C193.544 84.301 194.096 82.093 194.096 79.621C194.096 77.149 193.544 74.941 192.44 72.997C191.336 71.053 189.824 69.541 187.904 68.461C185.984 67.357 183.848 66.805 181.496 66.805C179.168 66.805 177.044 67.357 175.124 68.461C173.204 69.541 171.68 71.065 170.552 73.033C169.448 74.977 168.896 77.173 168.896 79.621C168.896 82.069 169.448 84.277 170.552 86.245C171.68 88.189 173.204 89.713 175.124 90.817ZM186.212 88.369C184.82 89.185 183.248 89.593 181.496 89.593C179.744 89.593 178.16 89.185 176.744 88.369C175.352 87.553 174.248 86.389 173.432 84.877C172.64 83.365 172.244 81.613 172.244 79.621C172.244 77.605 172.64 75.853 173.432 74.365C174.248 72.853 175.352 71.689 176.744 70.873C178.136 70.057 179.72 69.649 181.496 69.649C183.272 69.649 184.856 70.057 186.248 70.873C187.64 71.689 188.732 72.853 189.524 74.365C190.34 75.853 190.748 77.605 190.748 79.621C190.748 81.613 190.34 83.365 189.524 84.877C188.732 86.389 187.628 87.553 186.212 88.369ZM207.024 69.757H213.864V67.093H196.872V69.757H203.748V92.185H207.024V69.757ZM237.229 92.185V67.093H233.953V78.109H221.173V67.093H217.897V92.185H221.173V80.809H233.953V92.185H237.229ZM246.099 92.185V67.093H242.823V92.185H246.099ZM268.134 92.185H271.41V67.057H268.134V87.001L254.958 67.057H251.682V92.185H254.958V72.205L268.134 92.185ZM292.979 70.981C294.299 71.773 295.307 72.901 296.003 74.365H299.927C298.991 71.965 297.491 70.105 295.427 68.785C293.387 67.465 291.035 66.805 288.371 66.805C286.043 66.805 283.919 67.357 281.999 68.461C280.079 69.541 278.555 71.065 277.427 73.033C276.323 74.977 275.771 77.173 275.771 79.621C275.771 82.069 276.323 84.265 277.427 86.209C278.555 88.153 280.079 89.677 281.999 90.781C283.919 91.861 286.043 92.401 288.371 92.401C290.579 92.401 292.583 91.909 294.383 90.925C296.183 89.917 297.635 88.561 298.739 86.857C299.843 85.129 300.491 83.233 300.683 81.169V78.649H287.183V81.313H297.191C296.927 83.809 296.003 85.789 294.419 87.253C292.835 88.717 290.819 89.449 288.371 89.449C286.619 89.449 285.035 89.053 283.619 88.261C282.227 87.445 281.123 86.293 280.307 84.805C279.515 83.317 279.119 81.589 279.119 79.621C279.119 77.653 279.515 75.925 280.307 74.437C281.123 72.925 282.227 71.773 283.619 70.981C285.035 70.165 286.619 69.757 288.371 69.757C290.123 69.757 291.659 70.165 292.979 70.981ZM315.044 73.033C313.94 74.977 313.388 77.173 313.388 79.621C313.388 82.069 313.94 84.265 315.044 86.209C316.148 88.153 317.648 89.677 319.544 90.781C321.464 91.861 323.588 92.401 325.916 92.401C328.652 92.401 331.04 91.753 333.08 90.457C335.12 89.137 336.608 87.277 337.544 84.877H333.62C332.924 86.389 331.916 87.553 330.596 88.369C329.3 89.161 327.74 89.557 325.916 89.557C324.164 89.557 322.592 89.149 321.2 88.333C319.808 87.517 318.716 86.365 317.924 84.877C317.132 83.365 316.736 81.613 316.736 79.621C316.736 77.605 317.132 75.853 317.924 74.365C318.716 72.853 319.808 71.689 321.2 70.873C322.592 70.057 324.164 69.649 325.916 69.649C327.74 69.649 329.3 70.057 330.596 70.873C331.916 71.689 332.924 72.853 333.62 74.365H337.544C336.608 71.941 335.12 70.069 333.08 68.749C331.04 67.429 328.652 66.769 325.916 66.769C323.588 66.769 321.464 67.321 319.544 68.425C317.648 69.529 316.148 71.065 315.044 73.033ZM347.424 90.817C349.344 91.897 351.468 92.437 353.796 92.437C356.148 92.437 358.284 91.897 360.204 90.817C362.124 89.713 363.636 88.189 364.74 86.245C365.844 84.301 366.396 82.093 366.396 79.621C366.396 77.149 365.844 74.941 364.74 72.997C363.636 71.053 362.124 69.541 360.204 68.461C358.284 67.357 356.148 66.805 353.796 66.805C351.468 66.805 349.344 67.357 347.424 68.461C345.504 69.541 343.98 71.065 342.852 73.033C341.748 74.977 341.196 77.173 341.196 79.621C341.196 82.069 341.748 84.277 342.852 86.245C343.98 88.189 345.504 89.713 347.424 90.817ZM358.512 88.369C357.12 89.185 355.548 89.593 353.796 89.593C352.044 89.593 350.46 89.185 349.044 88.369C347.652 87.553 346.548 86.389 345.732 84.877C344.94 83.365 344.544 81.613 344.544 79.621C344.544 77.605 344.94 75.853 345.732 74.365C346.548 72.853 347.652 71.689 349.044 70.873C350.436 70.057 352.02 69.649 353.796 69.649C355.572 69.649 357.156 70.057 358.548 70.873C359.94 71.689 361.032 72.853 361.824 74.365C362.64 75.853 363.048 77.605 363.048 79.621C363.048 81.613 362.64 83.365 361.824 84.877C361.032 86.389 359.928 87.553 358.512 88.369Z" fill="black"/>
<path fill-rule="evenodd" clip-rule="evenodd" d="M110 57.5C110 86.4949 86.4949 110 57.5 110C28.5051 110 5 86.4949 5 57.5C5 28.5051 28.5051 5 57.5 5C86.4949 5 110 28.5051 110 57.5ZM115 57.5C115 89.2564 89.2564 115 57.5 115C25.7436 115 0 89.2564 0 57.5C0 25.7436 25.7436 0 57.5 0C89.2564 0 115 25.7436 115 57.5ZM94.5358 40.9464C94.5543 40.9639 94.5724 40.982 94.5899 41.0005C95.1571 41.5977 95.1329 42.5415 94.5358 43.1088L82.1283 55.6506V89.9503C82.1283 90.7739 81.4606 91.4416 80.637 91.4416H33.363C32.5395 91.4416 31.8717 90.7739 31.8717 89.9503V55.6506L19.4642 43.1088C19.4457 43.0913 19.4276 43.0732 19.4101 43.0547C18.8429 42.4577 18.8671 41.5137 19.4642 40.9464L35.0482 27.0476C35.1913 26.9171 35.3584 26.8159 35.5403 26.7493L46.8741 22.6483C47.0078 22.6013 47.1474 22.5737 47.2887 22.5661C48.1111 22.5221 48.8135 23.1531 48.8575 23.9755C48.8725 24.3036 49.3497 31.8645 56.9553 31.9838C64.5161 31.8645 65.0082 24.3036 65.0082 23.9755C65.0157 23.8271 65.0452 23.6808 65.0959 23.5412C65.377 22.767 66.2324 22.3672 67.0066 22.6483L78.3553 26.7046C78.5372 26.7711 78.7043 26.8723 78.8474 27.0028L94.5358 40.9464ZM82.0835 44.4808V51.4004L91.2401 42.1245L77.0877 29.4187L67.7522 26.0484C66.8981 30.449 63.4573 33.8898 59.0567 34.7439C53.0978 35.9004 47.3297 32.0072 46.1732 26.0484L36.8377 29.4187L22.6406 42.1245L31.8121 51.4153V44.4808C31.8121 43.6572 32.4798 42.9895 33.3034 42.9895C34.1269 42.9895 34.7947 43.6572 34.7947 44.4808V88.3844H79.101V44.4808C79.101 43.6572 79.7687 42.9895 80.5922 42.9895C81.4158 42.9895 82.0835 43.6572 82.0835 44.4808Z" fill="#9C39AC"/>
</svg>
